<mxfile host="app.diagrams.net" modified="2021-11-14T20:02:49.502Z" agent="5.0 (Macintosh; Intel Mac OS X 10_13_6) AppleWebKit/605.1.15 (KHTML, like Gecko) Version/13.1.2 Safari/605.1.15" etag="U1qdM95P26yS8-d8kPTj" version="15.7.3" type="github">
  <diagram id="saU4nzAp2ynHYXPzJVBw" name="Page-1">
    <mxGraphModel dx="1387" dy="930" grid="1" gridSize="10" guides="1" tooltips="1" connect="1" arrows="1" fold="1" page="1" pageScale="1" pageWidth="827" pageHeight="1169" math="0" shadow="0">
      <root>
        <mxCell id="0" />
        <mxCell id="1" parent="0" />
        <mxCell id="hrQuTuV2ZlKwB52n8Fv6-2" style="edgeStyle=orthogonalEdgeStyle;rounded=0;orthogonalLoop=1;jettySize=auto;html=1;exitX=1;exitY=0.5;exitDx=0;exitDy=0;entryX=0;entryY=0.5;entryDx=0;entryDy=0;exitPerimeter=0;" edge="1" parent="1" source="hrQuTuV2ZlKwB52n8Fv6-14" target="hrQuTuV2ZlKwB52n8Fv6-4">
          <mxGeometry relative="1" as="geometry">
            <mxPoint x="130" y="270" as="sourcePoint" />
          </mxGeometry>
        </mxCell>
        <mxCell id="hrQuTuV2ZlKwB52n8Fv6-3" style="edgeStyle=orthogonalEdgeStyle;rounded=0;orthogonalLoop=1;jettySize=auto;html=1;exitX=1;exitY=0.5;exitDx=0;exitDy=0;entryX=0;entryY=0.5;entryDx=0;entryDy=0;" edge="1" parent="1" source="hrQuTuV2ZlKwB52n8Fv6-4" target="hrQuTuV2ZlKwB52n8Fv6-6">
          <mxGeometry relative="1" as="geometry" />
        </mxCell>
        <mxCell id="hrQuTuV2ZlKwB52n8Fv6-4" value="Preprocessing" style="rounded=1;whiteSpace=wrap;html=1;fillColor=#dae8fc;strokeColor=#6c8ebf;strokeWidth=2;" vertex="1" parent="1">
          <mxGeometry x="140" y="240" width="90" height="60" as="geometry" />
        </mxCell>
        <mxCell id="hrQuTuV2ZlKwB52n8Fv6-5" style="edgeStyle=orthogonalEdgeStyle;rounded=0;orthogonalLoop=1;jettySize=auto;html=1;exitX=1;exitY=0.5;exitDx=0;exitDy=0;entryX=0;entryY=0.5;entryDx=0;entryDy=0;" edge="1" parent="1" source="hrQuTuV2ZlKwB52n8Fv6-6" target="hrQuTuV2ZlKwB52n8Fv6-8">
          <mxGeometry relative="1" as="geometry" />
        </mxCell>
        <mxCell id="hrQuTuV2ZlKwB52n8Fv6-6" value="WFA" style="rounded=1;whiteSpace=wrap;html=1;strokeWidth=2;fillColor=#e1d5e7;strokeColor=#9673a6;" vertex="1" parent="1">
          <mxGeometry x="260" y="240" width="80" height="60" as="geometry" />
        </mxCell>
        <mxCell id="hrQuTuV2ZlKwB52n8Fv6-7" style="edgeStyle=orthogonalEdgeStyle;rounded=0;orthogonalLoop=1;jettySize=auto;html=1;exitX=1;exitY=0.5;exitDx=0;exitDy=0;entryX=0;entryY=0.5;entryDx=0;entryDy=0;" edge="1" parent="1" source="hrQuTuV2ZlKwB52n8Fv6-8" target="hrQuTuV2ZlKwB52n8Fv6-10">
          <mxGeometry relative="1" as="geometry" />
        </mxCell>
        <mxCell id="hrQuTuV2ZlKwB52n8Fv6-8" value="Determine Ignore Words" style="rounded=1;whiteSpace=wrap;html=1;strokeWidth=2;fillColor=#dae8fc;strokeColor=#6c8ebf;" vertex="1" parent="1">
          <mxGeometry x="380" y="240" width="80" height="60" as="geometry" />
        </mxCell>
        <mxCell id="hrQuTuV2ZlKwB52n8Fv6-9" style="edgeStyle=orthogonalEdgeStyle;rounded=0;orthogonalLoop=1;jettySize=auto;html=1;exitX=1;exitY=0.5;exitDx=0;exitDy=0;entryX=0;entryY=0.5;entryDx=0;entryDy=0;" edge="1" parent="1" source="hrQuTuV2ZlKwB52n8Fv6-10" target="hrQuTuV2ZlKwB52n8Fv6-13">
          <mxGeometry relative="1" as="geometry" />
        </mxCell>
        <mxCell id="hrQuTuV2ZlKwB52n8Fv6-10" value="Drop Ignore Words" style="rounded=1;whiteSpace=wrap;html=1;strokeWidth=2;fillColor=#dae8fc;strokeColor=#6c8ebf;" vertex="1" parent="1">
          <mxGeometry x="500" y="240" width="80" height="60" as="geometry" />
        </mxCell>
        <mxCell id="hrQuTuV2ZlKwB52n8Fv6-11" style="edgeStyle=orthogonalEdgeStyle;rounded=0;orthogonalLoop=1;jettySize=auto;html=1;exitX=1;exitY=0.5;exitDx=0;exitDy=0;entryX=0;entryY=0.5;entryDx=0;entryDy=0;" edge="1" parent="1" source="hrQuTuV2ZlKwB52n8Fv6-13" target="hrQuTuV2ZlKwB52n8Fv6-20">
          <mxGeometry relative="1" as="geometry" />
        </mxCell>
        <mxCell id="hrQuTuV2ZlKwB52n8Fv6-12" style="edgeStyle=orthogonalEdgeStyle;rounded=0;orthogonalLoop=1;jettySize=auto;html=1;exitX=1;exitY=0.5;exitDx=0;exitDy=0;entryX=0;entryY=0.5;entryDx=0;entryDy=0;" edge="1" parent="1" source="hrQuTuV2ZlKwB52n8Fv6-13" target="hrQuTuV2ZlKwB52n8Fv6-17">
          <mxGeometry relative="1" as="geometry" />
        </mxCell>
        <mxCell id="hrQuTuV2ZlKwB52n8Fv6-13" value="&lt;span style=&quot;text-align: left&quot;&gt;SW Name Formatting&lt;/span&gt;" style="rounded=1;whiteSpace=wrap;html=1;strokeWidth=2;fillColor=#dae8fc;strokeColor=#6c8ebf;" vertex="1" parent="1">
          <mxGeometry x="620" y="240" width="80" height="60" as="geometry" />
        </mxCell>
        <mxCell id="hrQuTuV2ZlKwB52n8Fv6-14" value="Request Text Data" style="shape=cylinder3;whiteSpace=wrap;html=1;boundedLbl=1;backgroundOutline=1;size=15;fillColor=#dae8fc;strokeColor=#6c8ebf;strokeWidth=3;" vertex="1" parent="1">
          <mxGeometry x="40" y="230" width="60" height="80" as="geometry" />
        </mxCell>
        <mxCell id="hrQuTuV2ZlKwB52n8Fv6-15" value="" style="pointerEvents=1;shadow=0;dashed=0;html=1;strokeColor=none;labelPosition=center;verticalLabelPosition=bottom;verticalAlign=top;align=center;fillColor=#505050;shape=mxgraph.mscae.oms.log_search" vertex="1" parent="1">
          <mxGeometry x="277.5" y="210" width="45" height="40" as="geometry" />
        </mxCell>
        <mxCell id="hrQuTuV2ZlKwB52n8Fv6-16" style="edgeStyle=orthogonalEdgeStyle;rounded=0;orthogonalLoop=1;jettySize=auto;html=1;exitX=1;exitY=0.5;exitDx=0;exitDy=0;entryX=0;entryY=0.5;entryDx=0;entryDy=0;" edge="1" parent="1" source="hrQuTuV2ZlKwB52n8Fv6-17" target="hrQuTuV2ZlKwB52n8Fv6-18">
          <mxGeometry relative="1" as="geometry" />
        </mxCell>
        <mxCell id="hrQuTuV2ZlKwB52n8Fv6-17" value="Word Frequency Analysis" style="shape=image;html=1;verticalAlign=top;verticalLabelPosition=bottom;labelBackgroundColor=#ffffff;imageAspect=0;aspect=fixed;image=https://cdn1.iconfinder.com/data/icons/prettyoffice8/128/Bar-chart.png;strokeWidth=1;" vertex="1" parent="1">
          <mxGeometry x="770" y="300" width="68" height="68" as="geometry" />
        </mxCell>
        <mxCell id="hrQuTuV2ZlKwB52n8Fv6-18" value="Decision Making" style="shape=image;html=1;verticalAlign=top;verticalLabelPosition=bottom;labelBackgroundColor=#ffffff;imageAspect=0;aspect=fixed;image=https://cdn0.iconfinder.com/data/icons/business-startup-10/50/16-128.png;" vertex="1" parent="1">
          <mxGeometry x="900" y="235" width="70" height="70" as="geometry" />
        </mxCell>
        <mxCell id="hrQuTuV2ZlKwB52n8Fv6-19" style="edgeStyle=orthogonalEdgeStyle;rounded=0;orthogonalLoop=1;jettySize=auto;html=1;exitX=1;exitY=0.5;exitDx=0;exitDy=0;" edge="1" parent="1" source="hrQuTuV2ZlKwB52n8Fv6-20" target="hrQuTuV2ZlKwB52n8Fv6-18">
          <mxGeometry relative="1" as="geometry" />
        </mxCell>
        <mxCell id="hrQuTuV2ZlKwB52n8Fv6-20" value="" style="shape=image;html=1;verticalAlign=top;verticalLabelPosition=bottom;labelBackgroundColor=#ffffff;imageAspect=0;aspect=fixed;image=https://cdn1.iconfinder.com/data/icons/prettyoffice8/128/Bar-chart.png" vertex="1" parent="1">
          <mxGeometry x="770" y="172" width="68" height="68" as="geometry" />
        </mxCell>
        <mxCell id="hrQuTuV2ZlKwB52n8Fv6-21" value="&lt;span style=&quot;background-color: rgb(255 , 255 , 255)&quot;&gt;Pair Frequency Analysis&lt;/span&gt;" style="text;html=1;align=center;verticalAlign=middle;resizable=0;points=[];autosize=1;strokeColor=none;fillColor=none;" vertex="1" parent="1">
          <mxGeometry x="734" y="149" width="140" height="20" as="geometry" />
        </mxCell>
        <mxCell id="hrQuTuV2ZlKwB52n8Fv6-22" value="" style="html=1;aspect=fixed;strokeColor=none;shadow=0;align=center;verticalAlign=top;fillColor=#2D9C5E;shape=mxgraph.gcp2.check" vertex="1" parent="1">
          <mxGeometry x="950" y="220" width="37.5" height="30" as="geometry" />
        </mxCell>
        <mxCell id="hrQuTuV2ZlKwB52n8Fv6-25" style="edgeStyle=orthogonalEdgeStyle;rounded=0;orthogonalLoop=1;jettySize=auto;html=1;exitX=1;exitY=0.5;exitDx=0;exitDy=0;exitPerimeter=0;entryX=0;entryY=0.5;entryDx=0;entryDy=0;" edge="1" parent="1" source="hrQuTuV2ZlKwB52n8Fv6-23" target="hrQuTuV2ZlKwB52n8Fv6-24">
          <mxGeometry relative="1" as="geometry" />
        </mxCell>
        <mxCell id="hrQuTuV2ZlKwB52n8Fv6-23" value="Interp.&lt;br&gt;Train Data" style="shape=cylinder3;whiteSpace=wrap;html=1;boundedLbl=1;backgroundOutline=1;size=15;fillColor=#dae8fc;strokeColor=#6c8ebf;strokeWidth=3;" vertex="1" parent="1">
          <mxGeometry x="50" y="990" width="60" height="80" as="geometry" />
        </mxCell>
        <mxCell id="hrQuTuV2ZlKwB52n8Fv6-27" style="edgeStyle=orthogonalEdgeStyle;rounded=0;orthogonalLoop=1;jettySize=auto;html=1;exitX=1;exitY=0.5;exitDx=0;exitDy=0;entryX=0;entryY=0.5;entryDx=0;entryDy=0;" edge="1" parent="1" source="hrQuTuV2ZlKwB52n8Fv6-24" target="hrQuTuV2ZlKwB52n8Fv6-26">
          <mxGeometry relative="1" as="geometry" />
        </mxCell>
        <mxCell id="hrQuTuV2ZlKwB52n8Fv6-24" value="Explatory &lt;br&gt;Data Analysis" style="shape=image;html=1;verticalAlign=top;verticalLabelPosition=bottom;labelBackgroundColor=#ffffff;imageAspect=0;aspect=fixed;image=https://cdn1.iconfinder.com/data/icons/prettyoffice8/128/Bar-chart.png;strokeWidth=1;" vertex="1" parent="1">
          <mxGeometry x="189.5" y="996" width="68" height="68" as="geometry" />
        </mxCell>
        <mxCell id="hrQuTuV2ZlKwB52n8Fv6-33" style="edgeStyle=orthogonalEdgeStyle;rounded=0;orthogonalLoop=1;jettySize=auto;html=1;exitX=1;exitY=0.5;exitDx=0;exitDy=0;" edge="1" parent="1" source="hrQuTuV2ZlKwB52n8Fv6-26" target="hrQuTuV2ZlKwB52n8Fv6-30">
          <mxGeometry relative="1" as="geometry" />
        </mxCell>
        <mxCell id="hrQuTuV2ZlKwB52n8Fv6-26" value="Preprocessing" style="rounded=1;whiteSpace=wrap;html=1;fillColor=#dae8fc;strokeColor=#6c8ebf;strokeWidth=2;" vertex="1" parent="1">
          <mxGeometry x="340" y="1000" width="90" height="60" as="geometry" />
        </mxCell>
        <mxCell id="hrQuTuV2ZlKwB52n8Fv6-28" value="&lt;ul&gt;&lt;li style=&quot;text-align: left&quot;&gt;&lt;span style=&quot;font-size: 12px&quot;&gt;Outlier Handling&lt;/span&gt;&lt;br&gt;&lt;/li&gt;&lt;li style=&quot;text-align: left&quot;&gt;&lt;span style=&quot;font-size: 12px&quot;&gt;Correlation Analysis&lt;/span&gt;&lt;br&gt;&lt;/li&gt;&lt;li style=&quot;text-align: left&quot;&gt;&lt;span style=&quot;font-size: 12px&quot;&gt;Manuel Dimension Reduction&lt;/span&gt;&lt;br&gt;&lt;/li&gt;&lt;li&gt;&lt;div style=&quot;text-align: left&quot;&gt;&lt;span style=&quot;font-size: 12px&quot;&gt;Scaling&lt;/span&gt;&lt;/div&gt;&lt;/li&gt;&lt;/ul&gt;" style="text;html=1;align=center;verticalAlign=middle;resizable=0;points=[];autosize=1;strokeColor=none;fillColor=none;" vertex="1" parent="1">
          <mxGeometry x="280" y="1055" width="210" height="80" as="geometry" />
        </mxCell>
        <mxCell id="hrQuTuV2ZlKwB52n8Fv6-35" style="edgeStyle=orthogonalEdgeStyle;rounded=0;orthogonalLoop=1;jettySize=auto;html=1;exitX=1;exitY=0.5;exitDx=0;exitDy=0;entryX=0;entryY=0.5;entryDx=0;entryDy=0;" edge="1" parent="1" source="hrQuTuV2ZlKwB52n8Fv6-30" target="hrQuTuV2ZlKwB52n8Fv6-34">
          <mxGeometry relative="1" as="geometry" />
        </mxCell>
        <mxCell id="hrQuTuV2ZlKwB52n8Fv6-30" value="&lt;span&gt;Non-linear dimensionality reduction&lt;/span&gt;" style="rounded=1;whiteSpace=wrap;html=1;fillColor=#dae8fc;strokeColor=#6c8ebf;strokeWidth=2;" vertex="1" parent="1">
          <mxGeometry x="550" y="955" width="90" height="60" as="geometry" />
        </mxCell>
        <mxCell id="hrQuTuV2ZlKwB52n8Fv6-32" value="Kernal PCA &lt;br&gt;Unsupervised Model" style="text;html=1;align=center;verticalAlign=middle;resizable=0;points=[];autosize=1;strokeColor=none;fillColor=none;" vertex="1" parent="1">
          <mxGeometry x="535" y="1025" width="120" height="30" as="geometry" />
        </mxCell>
        <mxCell id="hrQuTuV2ZlKwB52n8Fv6-34" value="&lt;span&gt;Modeling &lt;br&gt;&amp;amp; &lt;br&gt;Tuning &lt;br&gt;&amp;amp;&lt;br&gt;Preventing Overfit&lt;br&gt;&amp;amp;&lt;br&gt;Evaluation&amp;nbsp;&lt;/span&gt;" style="rounded=1;whiteSpace=wrap;html=1;fillColor=#dae8fc;strokeColor=#6c8ebf;strokeWidth=2;" vertex="1" parent="1">
          <mxGeometry x="710" y="865" width="80" height="240" as="geometry" />
        </mxCell>
        <mxCell id="hrQuTuV2ZlKwB52n8Fv6-36" value="&lt;b&gt;RandomForestRegressor&lt;/b&gt;" style="rounded=1;whiteSpace=wrap;html=1;strokeWidth=2;fillColor=#e1d5e7;strokeColor=#9673a6;" vertex="1" parent="1">
          <mxGeometry x="850" y="865" width="150" height="60" as="geometry" />
        </mxCell>
        <mxCell id="hrQuTuV2ZlKwB52n8Fv6-38" style="edgeStyle=orthogonalEdgeStyle;rounded=0;orthogonalLoop=1;jettySize=auto;html=1;exitX=1;exitY=0.5;exitDx=0;exitDy=0;entryX=0;entryY=0.5;entryDx=0;entryDy=0;" edge="1" parent="1" target="hrQuTuV2ZlKwB52n8Fv6-36">
          <mxGeometry relative="1" as="geometry">
            <mxPoint x="790" y="894.5" as="sourcePoint" />
            <mxPoint x="830" y="894.5" as="targetPoint" />
          </mxGeometry>
        </mxCell>
        <mxCell id="hrQuTuV2ZlKwB52n8Fv6-39" value="Tuning and Prevent Overfitting with:&lt;br&gt;&lt;div style=&quot;text-align: left&quot;&gt;&lt;ul&gt;&lt;li&gt;&lt;span style=&quot;font-size: 12px&quot;&gt;Bootstrap&amp;nbsp;&lt;/span&gt;&lt;br&gt;&lt;/li&gt;&lt;li&gt;&lt;span style=&quot;font-size: 12px&quot;&gt;RepeatedKFold +&amp;nbsp;GridSearchCV&lt;/span&gt;&lt;br&gt;&lt;/li&gt;&lt;/ul&gt;&lt;/div&gt;" style="text;html=1;align=center;verticalAlign=middle;resizable=0;points=[];autosize=1;strokeColor=none;fillColor=none;" vertex="1" parent="1">
          <mxGeometry x="991" y="860" width="230" height="70" as="geometry" />
        </mxCell>
        <mxCell id="hrQuTuV2ZlKwB52n8Fv6-42" value="&lt;b&gt;Ridge Regression with Polynomial Features&lt;/b&gt;" style="rounded=1;whiteSpace=wrap;html=1;strokeWidth=2;fillColor=#e1d5e7;strokeColor=#9673a6;" vertex="1" parent="1">
          <mxGeometry x="850" y="945" width="150" height="60" as="geometry" />
        </mxCell>
        <mxCell id="hrQuTuV2ZlKwB52n8Fv6-43" style="edgeStyle=orthogonalEdgeStyle;rounded=0;orthogonalLoop=1;jettySize=auto;html=1;exitX=1;exitY=0.5;exitDx=0;exitDy=0;entryX=0;entryY=0.5;entryDx=0;entryDy=0;" edge="1" parent="1" target="hrQuTuV2ZlKwB52n8Fv6-42">
          <mxGeometry relative="1" as="geometry">
            <mxPoint x="790" y="974.5" as="sourcePoint" />
            <mxPoint x="830" y="974.5" as="targetPoint" />
          </mxGeometry>
        </mxCell>
        <mxCell id="hrQuTuV2ZlKwB52n8Fv6-44" value="Tuning and Prevent Overfitting with:&lt;br&gt;&lt;div style=&quot;text-align: left&quot;&gt;&lt;ul&gt;&lt;li&gt;&lt;span style=&quot;font-size: 12px&quot;&gt;L2 regularization (Ridge)&lt;/span&gt;&lt;/li&gt;&lt;li&gt;&lt;span style=&quot;font-size: 12px&quot;&gt;RepeatedKFold +&amp;nbsp;GridSearchCV&lt;/span&gt;&lt;br&gt;&lt;/li&gt;&lt;/ul&gt;&lt;/div&gt;" style="text;html=1;align=center;verticalAlign=middle;resizable=0;points=[];autosize=1;strokeColor=none;fillColor=none;" vertex="1" parent="1">
          <mxGeometry x="991" y="940" width="230" height="70" as="geometry" />
        </mxCell>
        <mxCell id="hrQuTuV2ZlKwB52n8Fv6-45" value="&lt;b&gt;ElasticNet Regression with Polynomial Features&lt;/b&gt;" style="rounded=1;whiteSpace=wrap;html=1;strokeWidth=2;fillColor=#e1d5e7;strokeColor=#9673a6;" vertex="1" parent="1">
          <mxGeometry x="850" y="1030" width="150" height="60" as="geometry" />
        </mxCell>
        <mxCell id="hrQuTuV2ZlKwB52n8Fv6-46" style="edgeStyle=orthogonalEdgeStyle;rounded=0;orthogonalLoop=1;jettySize=auto;html=1;exitX=1;exitY=0.5;exitDx=0;exitDy=0;entryX=0;entryY=0.5;entryDx=0;entryDy=0;" edge="1" parent="1" target="hrQuTuV2ZlKwB52n8Fv6-45">
          <mxGeometry relative="1" as="geometry">
            <mxPoint x="790" y="1059.5" as="sourcePoint" />
            <mxPoint x="830" y="1059.5" as="targetPoint" />
          </mxGeometry>
        </mxCell>
        <mxCell id="hrQuTuV2ZlKwB52n8Fv6-49" value="&lt;div style=&quot;text-align: left&quot;&gt;&lt;span style=&quot;font-size: 12px&quot;&gt;&amp;nbsp; &amp;nbsp; Tuning and Prevent Overfitting with:&lt;/span&gt;&lt;/div&gt;&lt;div&gt;&lt;ul&gt;&lt;li style=&quot;text-align: left&quot;&gt;&lt;span style=&quot;font-size: 12px&quot;&gt;Combined L1 and L2 priors&amp;nbsp;&lt;/span&gt;&lt;span style=&quot;font-size: 12px&quot;&gt;as&amp;nbsp;&lt;/span&gt;&lt;span style=&quot;font-size: 12px&quot;&gt;Regularizer (ElasticNet)&amp;nbsp;&lt;/span&gt;&lt;/li&gt;&lt;li&gt;&lt;div style=&quot;text-align: left&quot;&gt;&lt;span style=&quot;font-size: 12px&quot;&gt;RepeatedKFold +&amp;nbsp;GridSearchCV&lt;/span&gt;&lt;/div&gt;&lt;/li&gt;&lt;/ul&gt;&lt;/div&gt;" style="text;html=1;align=center;verticalAlign=middle;resizable=0;points=[];autosize=1;strokeColor=none;fillColor=none;" vertex="1" parent="1">
          <mxGeometry x="996" y="1025" width="340" height="70" as="geometry" />
        </mxCell>
        <mxCell id="hrQuTuV2ZlKwB52n8Fv6-50" value="&lt;b&gt;Deep Neural Network&lt;/b&gt;" style="rounded=1;whiteSpace=wrap;html=1;strokeWidth=2;fillColor=#e1d5e7;strokeColor=#9673a6;" vertex="1" parent="1">
          <mxGeometry x="850" y="1120" width="150" height="60" as="geometry" />
        </mxCell>
        <mxCell id="hrQuTuV2ZlKwB52n8Fv6-55" style="edgeStyle=orthogonalEdgeStyle;rounded=0;orthogonalLoop=1;jettySize=auto;html=1;" edge="1" parent="1">
          <mxGeometry relative="1" as="geometry">
            <mxPoint x="490" y="1030" as="sourcePoint" />
            <mxPoint x="850" y="1150" as="targetPoint" />
            <Array as="points">
              <mxPoint x="490" y="1150" />
              <mxPoint x="793" y="1150" />
            </Array>
          </mxGeometry>
        </mxCell>
        <mxCell id="hrQuTuV2ZlKwB52n8Fv6-78" value="No need extra feature selection" style="edgeLabel;html=1;align=center;verticalAlign=middle;resizable=0;points=[];" vertex="1" connectable="0" parent="hrQuTuV2ZlKwB52n8Fv6-55">
          <mxGeometry x="0.0083" relative="1" as="geometry">
            <mxPoint y="10" as="offset" />
          </mxGeometry>
        </mxCell>
        <mxCell id="hrQuTuV2ZlKwB52n8Fv6-56" style="edgeStyle=orthogonalEdgeStyle;rounded=0;orthogonalLoop=1;jettySize=auto;html=1;exitX=1;exitY=0.5;exitDx=0;exitDy=0;exitPerimeter=0;entryX=0;entryY=0.5;entryDx=0;entryDy=0;" edge="1" parent="1" source="hrQuTuV2ZlKwB52n8Fv6-57" target="hrQuTuV2ZlKwB52n8Fv6-59">
          <mxGeometry relative="1" as="geometry" />
        </mxCell>
        <mxCell id="hrQuTuV2ZlKwB52n8Fv6-57" value="Interp.&lt;br&gt;Train Data" style="shape=cylinder3;whiteSpace=wrap;html=1;boundedLbl=1;backgroundOutline=1;size=15;fillColor=#dae8fc;strokeColor=#6c8ebf;strokeWidth=3;" vertex="1" parent="1">
          <mxGeometry x="50" y="595" width="60" height="80" as="geometry" />
        </mxCell>
        <mxCell id="hrQuTuV2ZlKwB52n8Fv6-58" style="edgeStyle=orthogonalEdgeStyle;rounded=0;orthogonalLoop=1;jettySize=auto;html=1;exitX=1;exitY=0.5;exitDx=0;exitDy=0;entryX=0;entryY=0.5;entryDx=0;entryDy=0;" edge="1" parent="1" source="hrQuTuV2ZlKwB52n8Fv6-59" target="hrQuTuV2ZlKwB52n8Fv6-61">
          <mxGeometry relative="1" as="geometry" />
        </mxCell>
        <mxCell id="hrQuTuV2ZlKwB52n8Fv6-59" value="Explatory &lt;br&gt;Data Analysis" style="shape=image;html=1;verticalAlign=top;verticalLabelPosition=bottom;labelBackgroundColor=#ffffff;imageAspect=0;aspect=fixed;image=https://cdn1.iconfinder.com/data/icons/prettyoffice8/128/Bar-chart.png;strokeWidth=1;" vertex="1" parent="1">
          <mxGeometry x="189.5" y="601" width="68" height="68" as="geometry" />
        </mxCell>
        <mxCell id="hrQuTuV2ZlKwB52n8Fv6-60" style="edgeStyle=orthogonalEdgeStyle;rounded=0;orthogonalLoop=1;jettySize=auto;html=1;exitX=1;exitY=0.5;exitDx=0;exitDy=0;" edge="1" parent="1" source="hrQuTuV2ZlKwB52n8Fv6-61" target="hrQuTuV2ZlKwB52n8Fv6-64">
          <mxGeometry relative="1" as="geometry" />
        </mxCell>
        <mxCell id="hrQuTuV2ZlKwB52n8Fv6-61" value="Preprocessing" style="rounded=1;whiteSpace=wrap;html=1;fillColor=#dae8fc;strokeColor=#6c8ebf;strokeWidth=2;" vertex="1" parent="1">
          <mxGeometry x="340" y="605" width="90" height="60" as="geometry" />
        </mxCell>
        <mxCell id="hrQuTuV2ZlKwB52n8Fv6-62" value="&lt;ul&gt;&lt;li style=&quot;text-align: left&quot;&gt;&lt;span style=&quot;font-size: 12px&quot;&gt;Outlier Handling&lt;/span&gt;&lt;br&gt;&lt;/li&gt;&lt;li style=&quot;text-align: left&quot;&gt;&lt;span style=&quot;font-size: 12px&quot;&gt;Correlation Analysis&lt;/span&gt;&lt;br&gt;&lt;/li&gt;&lt;li style=&quot;text-align: left&quot;&gt;&lt;span style=&quot;font-size: 12px&quot;&gt;Manuel Dimension Reduction&lt;/span&gt;&lt;br&gt;&lt;/li&gt;&lt;li&gt;&lt;div style=&quot;text-align: left&quot;&gt;&lt;span style=&quot;font-size: 12px&quot;&gt;Scaling&lt;/span&gt;&lt;/div&gt;&lt;/li&gt;&lt;/ul&gt;" style="text;html=1;align=center;verticalAlign=middle;resizable=0;points=[];autosize=1;strokeColor=none;fillColor=none;" vertex="1" parent="1">
          <mxGeometry x="280" y="665" width="210" height="80" as="geometry" />
        </mxCell>
        <mxCell id="hrQuTuV2ZlKwB52n8Fv6-63" style="edgeStyle=orthogonalEdgeStyle;rounded=0;orthogonalLoop=1;jettySize=auto;html=1;exitX=1;exitY=0.5;exitDx=0;exitDy=0;entryX=0;entryY=0.5;entryDx=0;entryDy=0;" edge="1" parent="1" source="hrQuTuV2ZlKwB52n8Fv6-64" target="hrQuTuV2ZlKwB52n8Fv6-66">
          <mxGeometry relative="1" as="geometry" />
        </mxCell>
        <mxCell id="hrQuTuV2ZlKwB52n8Fv6-64" value="&lt;span&gt;Non-linear dimensionality reduction&lt;/span&gt;" style="rounded=1;whiteSpace=wrap;html=1;fillColor=#dae8fc;strokeColor=#6c8ebf;strokeWidth=2;" vertex="1" parent="1">
          <mxGeometry x="550" y="605" width="90" height="60" as="geometry" />
        </mxCell>
        <mxCell id="hrQuTuV2ZlKwB52n8Fv6-65" value="Kernal PCA &lt;br&gt;Unsupervised Model" style="text;html=1;align=center;verticalAlign=middle;resizable=0;points=[];autosize=1;strokeColor=none;fillColor=none;" vertex="1" parent="1">
          <mxGeometry x="535" y="675" width="120" height="30" as="geometry" />
        </mxCell>
        <mxCell id="hrQuTuV2ZlKwB52n8Fv6-66" value="&lt;span&gt;Modeling &lt;br&gt;&amp;amp; &lt;br&gt;Tuning &lt;br&gt;&amp;amp;&lt;br&gt;Preventing Overfit&lt;br&gt;&amp;amp;&lt;br&gt;Evaluation&amp;nbsp;&lt;/span&gt;" style="rounded=1;whiteSpace=wrap;html=1;fillColor=#dae8fc;strokeColor=#6c8ebf;strokeWidth=2;" vertex="1" parent="1">
          <mxGeometry x="710" y="515" width="80" height="240" as="geometry" />
        </mxCell>
        <mxCell id="hrQuTuV2ZlKwB52n8Fv6-67" value="&lt;b&gt;RandomForestRegressor&lt;/b&gt;" style="rounded=1;whiteSpace=wrap;html=1;strokeWidth=2;fillColor=#e1d5e7;strokeColor=#9673a6;" vertex="1" parent="1">
          <mxGeometry x="850" y="515" width="150" height="60" as="geometry" />
        </mxCell>
        <mxCell id="hrQuTuV2ZlKwB52n8Fv6-68" style="edgeStyle=orthogonalEdgeStyle;rounded=0;orthogonalLoop=1;jettySize=auto;html=1;exitX=1;exitY=0.5;exitDx=0;exitDy=0;entryX=0;entryY=0.5;entryDx=0;entryDy=0;" edge="1" parent="1" target="hrQuTuV2ZlKwB52n8Fv6-67">
          <mxGeometry relative="1" as="geometry">
            <mxPoint x="790" y="544.5" as="sourcePoint" />
            <mxPoint x="830" y="544.5" as="targetPoint" />
          </mxGeometry>
        </mxCell>
        <mxCell id="hrQuTuV2ZlKwB52n8Fv6-69" value="Tuning and Prevent Overfitting with:&lt;br&gt;&lt;div style=&quot;text-align: left&quot;&gt;&lt;ul&gt;&lt;li&gt;&lt;span style=&quot;font-size: 12px&quot;&gt;Bootstrap&amp;nbsp;&lt;/span&gt;&lt;br&gt;&lt;/li&gt;&lt;li&gt;&lt;span style=&quot;font-size: 12px&quot;&gt;RepeatedKFold +&amp;nbsp;GridSearchCV&lt;/span&gt;&lt;br&gt;&lt;/li&gt;&lt;/ul&gt;&lt;/div&gt;" style="text;html=1;align=center;verticalAlign=middle;resizable=0;points=[];autosize=1;strokeColor=none;fillColor=none;" vertex="1" parent="1">
          <mxGeometry x="991" y="510" width="230" height="70" as="geometry" />
        </mxCell>
        <mxCell id="hrQuTuV2ZlKwB52n8Fv6-70" value="&lt;b&gt;Ridge Regression with Polynomial Features&lt;/b&gt;" style="rounded=1;whiteSpace=wrap;html=1;strokeWidth=2;fillColor=#e1d5e7;strokeColor=#9673a6;" vertex="1" parent="1">
          <mxGeometry x="850" y="595" width="150" height="60" as="geometry" />
        </mxCell>
        <mxCell id="hrQuTuV2ZlKwB52n8Fv6-71" style="edgeStyle=orthogonalEdgeStyle;rounded=0;orthogonalLoop=1;jettySize=auto;html=1;exitX=1;exitY=0.5;exitDx=0;exitDy=0;entryX=0;entryY=0.5;entryDx=0;entryDy=0;" edge="1" parent="1" target="hrQuTuV2ZlKwB52n8Fv6-70">
          <mxGeometry relative="1" as="geometry">
            <mxPoint x="790" y="624.5" as="sourcePoint" />
            <mxPoint x="830" y="624.5" as="targetPoint" />
          </mxGeometry>
        </mxCell>
        <mxCell id="hrQuTuV2ZlKwB52n8Fv6-72" value="Tuning and Prevent Overfitting with:&lt;br&gt;&lt;div style=&quot;text-align: left&quot;&gt;&lt;ul&gt;&lt;li&gt;&lt;span style=&quot;font-size: 12px&quot;&gt;L2 regularization (Ridge)&lt;/span&gt;&lt;/li&gt;&lt;li&gt;&lt;span style=&quot;font-size: 12px&quot;&gt;RepeatedKFold +&amp;nbsp;GridSearchCV&lt;/span&gt;&lt;br&gt;&lt;/li&gt;&lt;/ul&gt;&lt;/div&gt;" style="text;html=1;align=center;verticalAlign=middle;resizable=0;points=[];autosize=1;strokeColor=none;fillColor=none;" vertex="1" parent="1">
          <mxGeometry x="991" y="590" width="230" height="70" as="geometry" />
        </mxCell>
        <mxCell id="hrQuTuV2ZlKwB52n8Fv6-73" value="&lt;b&gt;ElasticNet Regression with Polynomial Features&lt;/b&gt;" style="rounded=1;whiteSpace=wrap;html=1;strokeWidth=2;fillColor=#e1d5e7;strokeColor=#9673a6;" vertex="1" parent="1">
          <mxGeometry x="850" y="680" width="150" height="60" as="geometry" />
        </mxCell>
        <mxCell id="hrQuTuV2ZlKwB52n8Fv6-74" style="edgeStyle=orthogonalEdgeStyle;rounded=0;orthogonalLoop=1;jettySize=auto;html=1;exitX=1;exitY=0.5;exitDx=0;exitDy=0;entryX=0;entryY=0.5;entryDx=0;entryDy=0;" edge="1" parent="1" target="hrQuTuV2ZlKwB52n8Fv6-73">
          <mxGeometry relative="1" as="geometry">
            <mxPoint x="790" y="709.5" as="sourcePoint" />
            <mxPoint x="830" y="709.5" as="targetPoint" />
          </mxGeometry>
        </mxCell>
        <mxCell id="hrQuTuV2ZlKwB52n8Fv6-75" value="&lt;div style=&quot;text-align: left&quot;&gt;&lt;span style=&quot;font-size: 12px&quot;&gt;&amp;nbsp; &amp;nbsp; Tuning and Prevent Overfitting with:&lt;/span&gt;&lt;/div&gt;&lt;div&gt;&lt;ul&gt;&lt;li style=&quot;text-align: left&quot;&gt;&lt;span style=&quot;font-size: 12px&quot;&gt;Combined L1 and L2 priors&amp;nbsp;&lt;/span&gt;&lt;span style=&quot;font-size: 12px&quot;&gt;as&amp;nbsp;&lt;/span&gt;&lt;span style=&quot;font-size: 12px&quot;&gt;Regularizer (ElasticNet)&amp;nbsp;&lt;/span&gt;&lt;/li&gt;&lt;li&gt;&lt;div style=&quot;text-align: left&quot;&gt;&lt;span style=&quot;font-size: 12px&quot;&gt;RepeatedKFold +&amp;nbsp;GridSearchCV&lt;/span&gt;&lt;/div&gt;&lt;/li&gt;&lt;/ul&gt;&lt;/div&gt;" style="text;html=1;align=center;verticalAlign=middle;resizable=0;points=[];autosize=1;strokeColor=none;fillColor=none;" vertex="1" parent="1">
          <mxGeometry x="996" y="675" width="340" height="70" as="geometry" />
        </mxCell>
        <mxCell id="hrQuTuV2ZlKwB52n8Fv6-79" style="edgeStyle=orthogonalEdgeStyle;rounded=0;orthogonalLoop=1;jettySize=auto;html=1;exitX=1;exitY=0.5;exitDx=0;exitDy=0;exitPerimeter=0;entryX=0;entryY=0.5;entryDx=0;entryDy=0;" edge="1" parent="1" source="hrQuTuV2ZlKwB52n8Fv6-80" target="hrQuTuV2ZlKwB52n8Fv6-82">
          <mxGeometry relative="1" as="geometry" />
        </mxCell>
        <mxCell id="hrQuTuV2ZlKwB52n8Fv6-80" value="Interp.&lt;br&gt;Train Data" style="shape=cylinder3;whiteSpace=wrap;html=1;boundedLbl=1;backgroundOutline=1;size=15;fillColor=#dae8fc;strokeColor=#6c8ebf;strokeWidth=3;" vertex="1" parent="1">
          <mxGeometry x="50" y="1380" width="60" height="80" as="geometry" />
        </mxCell>
        <mxCell id="hrQuTuV2ZlKwB52n8Fv6-81" style="edgeStyle=orthogonalEdgeStyle;rounded=0;orthogonalLoop=1;jettySize=auto;html=1;exitX=1;exitY=0.5;exitDx=0;exitDy=0;entryX=0;entryY=0.5;entryDx=0;entryDy=0;" edge="1" parent="1" source="hrQuTuV2ZlKwB52n8Fv6-82" target="hrQuTuV2ZlKwB52n8Fv6-84">
          <mxGeometry relative="1" as="geometry" />
        </mxCell>
        <mxCell id="hrQuTuV2ZlKwB52n8Fv6-82" value="Explatory &lt;br&gt;Data Analysis" style="shape=image;html=1;verticalAlign=top;verticalLabelPosition=bottom;labelBackgroundColor=#ffffff;imageAspect=0;aspect=fixed;image=https://cdn1.iconfinder.com/data/icons/prettyoffice8/128/Bar-chart.png;strokeWidth=1;" vertex="1" parent="1">
          <mxGeometry x="189.5" y="1386" width="68" height="68" as="geometry" />
        </mxCell>
        <mxCell id="hrQuTuV2ZlKwB52n8Fv6-83" style="edgeStyle=orthogonalEdgeStyle;rounded=0;orthogonalLoop=1;jettySize=auto;html=1;exitX=1;exitY=0.5;exitDx=0;exitDy=0;" edge="1" parent="1" source="hrQuTuV2ZlKwB52n8Fv6-84" target="hrQuTuV2ZlKwB52n8Fv6-87">
          <mxGeometry relative="1" as="geometry" />
        </mxCell>
        <mxCell id="hrQuTuV2ZlKwB52n8Fv6-84" value="Preprocessing" style="rounded=1;whiteSpace=wrap;html=1;fillColor=#dae8fc;strokeColor=#6c8ebf;strokeWidth=2;" vertex="1" parent="1">
          <mxGeometry x="340" y="1390" width="90" height="60" as="geometry" />
        </mxCell>
        <mxCell id="hrQuTuV2ZlKwB52n8Fv6-85" value="&lt;ul&gt;&lt;li style=&quot;text-align: left&quot;&gt;&lt;span style=&quot;font-size: 12px&quot;&gt;Outlier Handling&lt;/span&gt;&lt;br&gt;&lt;/li&gt;&lt;li style=&quot;text-align: left&quot;&gt;&lt;span style=&quot;font-size: 12px&quot;&gt;Correlation Analysis&lt;/span&gt;&lt;br&gt;&lt;/li&gt;&lt;li style=&quot;text-align: left&quot;&gt;&lt;span style=&quot;font-size: 12px&quot;&gt;Manuel Dimension Reduction&lt;/span&gt;&lt;br&gt;&lt;/li&gt;&lt;li&gt;&lt;div style=&quot;text-align: left&quot;&gt;&lt;span style=&quot;font-size: 12px&quot;&gt;Scaling&lt;/span&gt;&lt;/div&gt;&lt;/li&gt;&lt;/ul&gt;" style="text;html=1;align=center;verticalAlign=middle;resizable=0;points=[];autosize=1;strokeColor=none;fillColor=none;" vertex="1" parent="1">
          <mxGeometry x="280" y="1445" width="210" height="80" as="geometry" />
        </mxCell>
        <mxCell id="hrQuTuV2ZlKwB52n8Fv6-86" style="edgeStyle=orthogonalEdgeStyle;rounded=0;orthogonalLoop=1;jettySize=auto;html=1;exitX=1;exitY=0.5;exitDx=0;exitDy=0;entryX=0;entryY=0.5;entryDx=0;entryDy=0;" edge="1" parent="1" source="hrQuTuV2ZlKwB52n8Fv6-87" target="hrQuTuV2ZlKwB52n8Fv6-89">
          <mxGeometry relative="1" as="geometry" />
        </mxCell>
        <mxCell id="hrQuTuV2ZlKwB52n8Fv6-87" value="&lt;span&gt;Non-linear dimensionality reduction&lt;/span&gt;" style="rounded=1;whiteSpace=wrap;html=1;fillColor=#dae8fc;strokeColor=#6c8ebf;strokeWidth=2;" vertex="1" parent="1">
          <mxGeometry x="550" y="1345" width="90" height="60" as="geometry" />
        </mxCell>
        <mxCell id="hrQuTuV2ZlKwB52n8Fv6-88" value="Kernal PCA &lt;br&gt;Unsupervised Model" style="text;html=1;align=center;verticalAlign=middle;resizable=0;points=[];autosize=1;strokeColor=none;fillColor=none;" vertex="1" parent="1">
          <mxGeometry x="535" y="1415" width="120" height="30" as="geometry" />
        </mxCell>
        <mxCell id="hrQuTuV2ZlKwB52n8Fv6-89" value="&lt;span&gt;Modeling &lt;br&gt;&amp;amp; &lt;br&gt;Tuning &lt;br&gt;&amp;amp;&lt;br&gt;Preventing Overfit&lt;br&gt;&amp;amp;&lt;br&gt;Evaluation&amp;nbsp;&lt;/span&gt;" style="rounded=1;whiteSpace=wrap;html=1;fillColor=#dae8fc;strokeColor=#6c8ebf;strokeWidth=2;" vertex="1" parent="1">
          <mxGeometry x="710" y="1255" width="80" height="240" as="geometry" />
        </mxCell>
        <mxCell id="hrQuTuV2ZlKwB52n8Fv6-90" value="&lt;b&gt;RandomForestRegressor&lt;/b&gt;" style="rounded=1;whiteSpace=wrap;html=1;strokeWidth=2;fillColor=#e1d5e7;strokeColor=#9673a6;" vertex="1" parent="1">
          <mxGeometry x="850" y="1255" width="150" height="60" as="geometry" />
        </mxCell>
        <mxCell id="hrQuTuV2ZlKwB52n8Fv6-91" style="edgeStyle=orthogonalEdgeStyle;rounded=0;orthogonalLoop=1;jettySize=auto;html=1;exitX=1;exitY=0.5;exitDx=0;exitDy=0;entryX=0;entryY=0.5;entryDx=0;entryDy=0;" edge="1" parent="1" target="hrQuTuV2ZlKwB52n8Fv6-90">
          <mxGeometry relative="1" as="geometry">
            <mxPoint x="790" y="1284.5" as="sourcePoint" />
            <mxPoint x="830" y="1284.5" as="targetPoint" />
          </mxGeometry>
        </mxCell>
        <mxCell id="hrQuTuV2ZlKwB52n8Fv6-93" value="&lt;b&gt;Ridge Regression with Polynomial Features&lt;/b&gt;" style="rounded=1;whiteSpace=wrap;html=1;strokeWidth=2;fillColor=#e1d5e7;strokeColor=#9673a6;" vertex="1" parent="1">
          <mxGeometry x="850" y="1335" width="150" height="60" as="geometry" />
        </mxCell>
        <mxCell id="hrQuTuV2ZlKwB52n8Fv6-94" style="edgeStyle=orthogonalEdgeStyle;rounded=0;orthogonalLoop=1;jettySize=auto;html=1;exitX=1;exitY=0.5;exitDx=0;exitDy=0;entryX=0;entryY=0.5;entryDx=0;entryDy=0;" edge="1" parent="1" target="hrQuTuV2ZlKwB52n8Fv6-93">
          <mxGeometry relative="1" as="geometry">
            <mxPoint x="790" y="1364.5" as="sourcePoint" />
            <mxPoint x="830" y="1364.5" as="targetPoint" />
          </mxGeometry>
        </mxCell>
        <mxCell id="hrQuTuV2ZlKwB52n8Fv6-96" value="&lt;b&gt;ElasticNet Regression with Polynomial Features&lt;/b&gt;" style="rounded=1;whiteSpace=wrap;html=1;strokeWidth=2;fillColor=#e1d5e7;strokeColor=#9673a6;" vertex="1" parent="1">
          <mxGeometry x="850" y="1420" width="150" height="60" as="geometry" />
        </mxCell>
        <mxCell id="hrQuTuV2ZlKwB52n8Fv6-97" style="edgeStyle=orthogonalEdgeStyle;rounded=0;orthogonalLoop=1;jettySize=auto;html=1;exitX=1;exitY=0.5;exitDx=0;exitDy=0;entryX=0;entryY=0.5;entryDx=0;entryDy=0;" edge="1" parent="1" target="hrQuTuV2ZlKwB52n8Fv6-96">
          <mxGeometry relative="1" as="geometry">
            <mxPoint x="790" y="1449.5" as="sourcePoint" />
            <mxPoint x="830" y="1449.5" as="targetPoint" />
          </mxGeometry>
        </mxCell>
        <mxCell id="hrQuTuV2ZlKwB52n8Fv6-99" value="&lt;b&gt;Deep Neural Network&lt;/b&gt;" style="rounded=1;whiteSpace=wrap;html=1;strokeWidth=2;fillColor=#e1d5e7;strokeColor=#9673a6;" vertex="1" parent="1">
          <mxGeometry x="850" y="1510" width="150" height="60" as="geometry" />
        </mxCell>
        <mxCell id="hrQuTuV2ZlKwB52n8Fv6-100" style="edgeStyle=orthogonalEdgeStyle;rounded=0;orthogonalLoop=1;jettySize=auto;html=1;" edge="1" parent="1">
          <mxGeometry relative="1" as="geometry">
            <mxPoint x="490" y="1420" as="sourcePoint" />
            <mxPoint x="850" y="1540" as="targetPoint" />
            <Array as="points">
              <mxPoint x="490" y="1540" />
              <mxPoint x="793" y="1540" />
            </Array>
          </mxGeometry>
        </mxCell>
        <mxCell id="hrQuTuV2ZlKwB52n8Fv6-101" value="No need extra feature selection" style="edgeLabel;html=1;align=center;verticalAlign=middle;resizable=0;points=[];" vertex="1" connectable="0" parent="hrQuTuV2ZlKwB52n8Fv6-100">
          <mxGeometry x="0.0083" relative="1" as="geometry">
            <mxPoint y="10" as="offset" />
          </mxGeometry>
        </mxCell>
      </root>
    </mxGraphModel>
  </diagram>
</mxfile>
